<?xml version="1.0" encoding="UTF-8"?>
<svg width="740.27" height="295.24" version="1.1" viewBox="0 0 740.27 295.24" xml:space="preserve" xmlns="http://www.w3.org/2000/svg">
<style type="text/css">
	.st0{fill:url(#SVGID_1_);}
	.st1{fill:url(#SVGID_00000174587969220787346450000007784116948124234630_);}
	.st2{fill:url(#SVGID_00000059306101236576278270000008780726096218313352_);}
	.st3{fill:url(#SVGID_00000002345782926031184270000009029232511775405473_);}
	.st4{fill:url(#SVGID_00000037683132122439636520000002803783118974807202_);}
	.st5{fill:url(#SVGID_00000075868136370730371470000003846224628731254462_);}
	.st6{fill:url(#SVGID_00000099638301165385335400000014622363466223353272_);}
	.st7{fill:url(#SVGID_00000132086411752855026100000004039829673280741277_);}
	.st8{fill:url(#SVGID_00000128464150078914731530000014800418913222808199_);}
	.st9{fill:url(#SVGID_00000016758023788058054600000003799833057427459732_);}
	.st10{fill:url(#SVGID_00000131355836164259148240000007445431631011805848_);}
	.st11{fill:url(#SVGID_00000096033325954281267340000000116030311030941857_);}
	.st12{fill:url(#SVGID_00000008114114524405272400000007898896160214514058_);}
	.st13{fill:url(#SVGID_00000118387224217342486320000015066486896436225714_);}
	.st14{fill:url(#SVGID_00000127032310990559990740000015785041585654854804_);}
	.st15{fill:url(#SVGID_00000177477010167139734240000010728987177860960936_);}
</style>
<g transform="translate(-229.86 -352.37)">
	
		<linearGradient id="SVGID_1_" x1="542.12" x2="542.12" y1="532.71" y2="459.85" gradientUnits="userSpaceOnUse">
			<stop stop-color="#9500FF" offset="0"/>
			<stop stop-color="#1FA7EA" offset="1"/>
		</linearGradient>
		<path class="st0" d="m551.5 474.51c1.09 0 2.07 0.3 3.16 0.3 2.57 0 4.64-2.27 4.64-4.94 0-4.84-4.25-6.92-9.48-6.92-8.4 0-15.9 4.84-15.9 13.93v7.21h-3.26c-4.05 0-5.73 1.58-5.73 4.74s1.68 4.74 5.73 4.74h3.26v36.25c0 4.74 2.86 7.21 7.21 7.21s7.21-2.47 7.21-7.21v-36.25h4.45c4.25 0 6.52-1.28 6.52-4.74s-2.27-4.74-6.52-4.74h-4.45v-6.22c0-1.97 1.09-3.36 3.16-3.36z" fill="url(#SVGID_1_)"/>
		
			<linearGradient id="SVGID_00000033355409298150157500000012137553601213275017_" x1="573.92" x2="573.92" y1="532.71" y2="459.85" gradientUnits="userSpaceOnUse">
			<stop stop-color="#9500FF" offset="0"/>
			<stop stop-color="#1FA7EA" offset="1"/>
		</linearGradient>
		<path d="m573.92 463.35c-4.35 0-7.21 2.47-7.21 7.21v59.27c0 4.74 2.86 7.21 7.21 7.21s7.21-2.47 7.21-7.21v-59.27c0-4.74-2.86-7.21-7.21-7.21z" fill="url(#SVGID_00000033355409298150157500000012137553601213275017_)"/>
		
			<linearGradient id="SVGID_00000059297368733727118630000002366910674529309099_" x1="617.24" x2="617.24" y1="532.71" y2="459.85" gradientUnits="userSpaceOnUse">
			<stop stop-color="#9500FF" offset="0"/>
			<stop stop-color="#1FA7EA" offset="1"/>
		</linearGradient>
		<path d="m641.29 497.63c0-10.37-9.58-14.82-23.41-14.82-14.82 0-22.92 7.31-22.92 13.04 0 2.96 2.47 5.53 6.12 5.53 5.73 0 6.03-7.9 16.7-7.9 4.84 0 9.09 1.78 9.09 5.93s-2.77 4.94-6.22 5.34l-8.79 0.99c-11.06 1.29-20.15 4.64-20.15 16.6 0 9.09 8.1 14.72 16.3 14.72 7.61 0 14.13-2.17 19.76-8.4 0.2 4.45 2.27 8.4 8.5 8.4 3.46 0 6.52-2.27 6.52-5.53 0-2.27-1.48-3.65-1.48-9.68v-24.22zm-14.42 19.46c0 5.34-4.84 10.47-12.74 10.47-4.94 0-8-2.67-8-5.93 0-4.35 3.26-6.22 9.29-7.11l5.24-0.79c1.68-0.3 4.64-0.79 6.22-2.27v5.63z" fill="url(#SVGID_00000059297368733727118630000002366910674529309099_)"/>
		
			<linearGradient id="SVGID_00000130645064580814326300000001897212363596037807_" x1="676.95" x2="676.95" y1="532.71" y2="459.85" gradientUnits="userSpaceOnUse">
			<stop stop-color="#9500FF" offset="0"/>
			<stop stop-color="#1FA7EA" offset="1"/>
		</linearGradient>
		<path d="m683.67 505.24 10.67-11.16c1.28-1.38 2.17-2.17 2.17-4.74 0-3.66-3.56-6.52-6.82-6.52-2.17 0-4.05 1.19-5.53 2.77l-16 17.78v-32.8c0-4.74-2.87-7.21-7.21-7.21-4.35 0-7.21 2.47-7.21 7.21v59.27c0 4.74 2.86 7.21 7.21 7.21s7.21-2.47 7.21-7.21v-10.97l5.04-4.45 13.63 19.26c1.09 1.58 2.96 3.36 6.52 3.36 3.85 0 6.82-3.36 6.82-7.01 0-2.37-0.99-3.95-1.48-4.64z" fill="url(#SVGID_00000130645064580814326300000001897212363596037807_)"/>
		
			<linearGradient id="SVGID_00000173868235186743411470000014457216453157340844_" x1="731.28" x2="731.28" y1="532.71" y2="459.85" gradientUnits="userSpaceOnUse">
			<stop stop-color="#9500FF" offset="0"/>
			<stop stop-color="#1FA7EA" offset="1"/>
		</linearGradient>
		<path d="m731.87 482.81c-17.09 0-27.26 11.26-27.26 28.05 0 12.55 7.61 26.18 27.76 26.18 8.69 0 22.62-4.05 22.62-12.74 0-2.67-2.47-5.63-5.93-5.63-5.83 0-5.83 7.11-16.69 7.11-8.4 0-13.34-5.53-13.34-13.14h32.6c4.84 0 6.32-1.28 6.32-6.22 0-11.85-9.49-23.61-26.08-23.61zm-12.84 21.54c1.58-7.01 5.93-11.46 13.14-11.46 6.42 0 11.36 4.84 12.15 11.46z" fill="url(#SVGID_00000173868235186743411470000014457216453157340844_)"/>
		
			<linearGradient id="SVGID_00000077309984930821250830000007040230552437020545_" x1="788.02" x2="788.02" y1="532.71" y2="459.85" gradientUnits="userSpaceOnUse">
			<stop stop-color="#9500FF" offset="0"/>
			<stop stop-color="#1FA7EA" offset="1"/>
		</linearGradient>
		<path d="m793.11 504.45-6.03-1.38c-4.45-0.99-7.71-1.78-7.71-5.14 0-3.06 3.26-4.45 8.3-4.45 9.09 0 9.29 6.62 14.92 6.62 3.75 0 6.03-2.96 6.03-6.32 0-6.62-11.06-10.97-22.03-10.97-9.98 0-21.63 4.35-21.63 16.1 0 9.68 6.52 13.14 14.92 15.21l8.5 2.07c5.14 1.28 8.3 1.88 8.3 5.53 0 2.96-3.26 5.24-8.4 5.24-10.67 0-11.26-8.89-17.49-8.89-4.05 0-5.83 2.87-5.83 6.03 0 7.11 10.87 12.94 23.91 12.94 10.87 0 22.23-5.43 22.23-17.19-0.01-10.07-9.79-13.53-17.99-15.4z" fill="url(#SVGID_00000077309984930821250830000007040230552437020545_)"/>
		
			<linearGradient id="SVGID_00000060714676967298509020000017803063261009192099_" x1="844.72" x2="844.72" y1="532.71" y2="459.85" gradientUnits="userSpaceOnUse">
			<stop stop-color="#9500FF" offset="0"/>
			<stop stop-color="#1FA7EA" offset="1"/>
		</linearGradient>
		<path d="m850.99 482.81c-8.2 0-13.24 3.85-16.1 7.61h-0.2v-19.86c0-4.74-2.86-7.21-7.21-7.21s-7.21 2.47-7.21 7.21v59.27c0 3.85 1.58 7.21 7.21 7.21s7.21-3.36 7.21-7.21v-23.81c0-7.21 5.93-11.36 10.97-11.36 6.22 0 9.09 4.15 9.09 9.98v25.19c0 3.85 1.58 7.21 7.21 7.21s7.21-3.36 7.21-7.21v-28.05c0-14.62-9.48-18.97-18.18-18.97z" fill="url(#SVGID_00000060714676967298509020000017803063261009192099_)"/>
		
			<linearGradient id="SVGID_00000058555904110752010460000006134160137745780645_" x1="905.12" x2="905.12" y1="532.71" y2="459.85" gradientUnits="userSpaceOnUse">
			<stop stop-color="#9500FF" offset="0"/>
			<stop stop-color="#1FA7EA" offset="1"/>
		</linearGradient>
		<path d="m905.12 482.81c-17.39 0-26.67 11.85-26.67 27.07 0 14.42 7.01 27.17 26.67 27.17s26.67-12.74 26.67-27.17c0.01-15.21-9.28-27.07-26.67-27.07zm0 43.57c-8.59 0-12.25-7.71-12.25-16.5 0-9.38 3.85-16.4 12.25-16.4s12.25 7.01 12.25 16.4c0 8.79-3.65 16.5-12.25 16.5z" fill="url(#SVGID_00000058555904110752010460000006134160137745780645_)"/>
		
			<linearGradient id="SVGID_00000102531348124580650160000017958720979487631499_" x1="953.38" x2="953.38" y1="532.71" y2="459.85" gradientUnits="userSpaceOnUse">
			<stop stop-color="#9500FF" offset="0"/>
			<stop stop-color="#1FA7EA" offset="1"/>
		</linearGradient>
		<path d="m965.08 525.78h-2.07c-2.57 0-3.75-1.18-3.75-3.36v-28.85h4.35c4.25 0 6.52-1.28 6.52-4.74s-2.27-4.74-6.52-4.74h-4.35v-8.79c0-4.74-2.87-7.21-7.21-7.21-4.35 0-7.21 2.47-7.21 7.21v8.79h-2.47c-4.05 0-5.73 1.58-5.73 4.74s1.68 4.74 5.73 4.74h2.47v30.62c0 8.5 4.35 12.84 14.82 12.84 6.92 0 10.47-2.27 10.47-6.42-0.01-3.05-1.89-4.83-5.05-4.83z" fill="url(#SVGID_00000102531348124580650160000017958720979487631499_)"/>
	
	
		
			<linearGradient id="SVGID_00000013884247222687474120000002353460338847208378_" x1="330.48" x2="330.48" y1="627.93" y2="307.82" gradientUnits="userSpaceOnUse">
			<stop stop-color="#9500FF" offset="0"/>
			<stop stop-color="#1FA7EA" offset="1"/>
		</linearGradient>
		<path d="m313.64 475.85c-2.28 4.55-3.95 9.51-4.88 14.78-2.31 13.07 0.31 25.87 6.51 36.5l37.76-44.33z" fill="url(#SVGID_00000013884247222687474120000002353460338847208378_)"/>
		
			<linearGradient id="SVGID_00000007402901050152765330000015666843536581858492_" x1="343.65" x2="343.65" y1="627.93" y2="307.82" gradientUnits="userSpaceOnUse">
			<stop stop-color="#9500FF" offset="0"/>
			<stop stop-color="#1FA7EA" offset="1"/>
		</linearGradient>
		<path d="m359.03 446.15c-18.55 0.95-35.25 11.49-44.21 27.47l57.66 10.18z" fill="url(#SVGID_00000007402901050152765330000015666843536581858492_)"/>
		
			<linearGradient id="SVGID_00000040540673024727308960000018019661453378633871_" x1="393.22" x2="393.22" y1="627.93" y2="307.82" gradientUnits="userSpaceOnUse">
			<stop stop-color="#9500FF" offset="0"/>
			<stop stop-color="#1FA7EA" offset="1"/>
		</linearGradient>
		<path d="m410.06 524.15c2.28-4.55 3.95-9.51 4.88-14.78 2.31-13.06-0.3-25.85-6.49-36.48l-37.77 44.31z" fill="url(#SVGID_00000040540673024727308960000018019661453378633871_)"/>
		
			<linearGradient id="SVGID_00000170959385185934940010000008919848302240929938_" x1="384.34" x2="384.34" y1="627.93" y2="307.82" gradientUnits="userSpaceOnUse">
			<stop stop-color="#9500FF" offset="0"/>
			<stop stop-color="#1FA7EA" offset="1"/>
		</linearGradient>
		<path d="m407.13 470.75c-7.85-12.15-20.54-21.12-35.91-23.84-3.25-0.57-6.48-0.84-9.67-0.83l19.66 55.06z" fill="url(#SVGID_00000170959385185934940010000008919848302240929938_)"/>
		
			<linearGradient id="SVGID_00000019639877963283445480000013937287299414876846_" x1="339.67" x2="339.67" y1="627.93" y2="307.82" gradientUnits="userSpaceOnUse">
			<stop stop-color="#9500FF" offset="0"/>
			<stop stop-color="#1FA7EA" offset="1"/>
		</linearGradient>
		<path d="m352.48 553.09c3.46 0.61 6.9 0.87 10.29 0.82l-20.27-55.05-25.92 30.42c7.86 12.14 20.54 21.1 35.9 23.81z" fill="url(#SVGID_00000019639877963283445480000013937287299414876846_)"/>
		
			<linearGradient id="SVGID_00000131363610533177961470000003466566554253082026_" x1="380.17" x2="380.17" y1="627.93" y2="307.82" gradientUnits="userSpaceOnUse">
			<stop stop-color="#9500FF" offset="0"/>
			<stop stop-color="#1FA7EA" offset="1"/>
		</linearGradient>
		<path d="m365.28 553.81c18.3-1.15 34.73-11.63 43.6-27.44l-57.43-10.14z" fill="url(#SVGID_00000131363610533177961470000003466566554253082026_)"/>
	
	
		<linearGradient id="SVGID_00000128470563793433778740000013585850769886779290_" x1="361.85" x2="361.85" y1="600.62" y2="337.89" gradientUnits="userSpaceOnUse">
		<stop stop-color="#9500FF" offset="0"/>
		<stop stop-color="#1FA7EA" offset="1"/>
	</linearGradient>
	<path d="m493.54 535.24c-0.64-2.88-2.35-5.25-4.63-6.79-2.46-1.65-5.55-2.34-8.67-1.64l-44.15 9.9-17.76-12c3.32-7.57 5.18-15.93 5.18-24.71 0-8.89-1.9-17.33-5.3-24.98l17.71-12.08 44.19 9.69c3.12 0.68 6.22-0.02 8.66-1.68 2.26-1.55 3.97-3.93 4.6-6.82 1.31-6-2.49-11.94-8.49-13.26l-23.68-5.19 19.66-13.41c1.48-1.01 2.64-2.31 3.46-3.78 0.15-0.27 0.28-0.52 0.4-0.8 0.52-1.14 0.83-2.36 0.95-3.6 0.01-0.11 0.02-0.23 0.02-0.34 0.02-0.44 0.02-0.89 0-1.34-0.01-0.22-0.03-0.44-0.06-0.66v-0.01c-0.02-0.11-0.03-0.23-0.05-0.33-0.05-0.31-0.1-0.61-0.18-0.92-0.14-0.58-0.32-1.15-0.56-1.71-0.06-0.12-0.1-0.23-0.16-0.35-0.05-0.1-0.1-0.21-0.15-0.31-0.06-0.11-0.11-0.23-0.17-0.34-0.19-0.34-0.38-0.65-0.6-0.98-0.22-0.31-0.44-0.62-0.68-0.9-0.09-0.1-0.17-0.19-0.25-0.28-0.08-0.1-0.17-0.19-0.26-0.27-0.08-0.1-0.17-0.18-0.25-0.27-0.4-0.39-0.83-0.73-1.27-1.06-0.3-0.21-0.6-0.41-0.91-0.59s-0.63-0.34-0.95-0.49c-0.33-0.15-0.66-0.27-1-0.39-3.21-1.1-6.87-0.73-9.89 1.33l-19.66 13.41 3.8-23.94c0.97-6.08-3.18-11.77-9.24-12.74-2.93-0.46-5.76 0.25-8.02 1.8-2.44 1.67-4.22 4.3-4.72 7.45l-7.11 44.68-17.72 12.09c-8.7-8.79-20.02-14.97-32.67-17.29v-21.43l32.9-31.05c2.32-2.19 3.5-5.13 3.5-8.09 0-2.75-1.01-5.49-3.04-7.64-4.22-4.47-11.27-4.68-15.74-0.46l-17.62 16.63v-23.79c0-1.81-0.43-3.5-1.18-4.99-0.14-0.27-0.27-0.53-0.44-0.78-0.64-1.08-1.47-2.03-2.43-2.82-0.09-0.07-0.17-0.15-0.26-0.21-0.35-0.27-0.73-0.52-1.11-0.76-0.19-0.11-0.38-0.22-0.58-0.33h-0.01c-0.1-0.05-0.19-0.1-0.3-0.15-0.28-0.14-0.56-0.26-0.85-0.37-0.56-0.22-1.14-0.39-1.72-0.51-0.13-0.02-0.25-0.05-0.38-0.06-0.12-0.02-0.23-0.04-0.35-0.05-0.13-0.02-0.25-0.04-0.38-0.05-0.37-0.04-0.75-0.06-1.14-0.06-0.38 0-0.77 0.02-1.14 0.06-0.12 0.01-0.25 0.02-0.38 0.04-0.12 0.02-0.24 0.03-0.36 0.06-0.12 0.02-0.25 0.04-0.36 0.06-0.55 0.11-1.07 0.27-1.59 0.45-0.34 0.13-0.67 0.27-1 0.43-0.32 0.15-0.64 0.32-0.94 0.51-0.31 0.19-0.6 0.39-0.89 0.6-2.72 2.02-4.48 5.27-4.48 8.92v23.79l-17.62-16.63c-4.47-4.22-11.52-4.01-15.74 0.46-2.03 2.15-3.04 4.89-3.04 7.64 0 2.96 1.18 5.9 3.5 8.09l32.9 31.05v21.43c-12.75 2.34-24.15 8.6-32.87 17.5l-17.79-12.01-7.31-44.65c-0.52-3.14-2.3-5.77-4.75-7.43-2.27-1.53-5.11-2.23-8.03-1.76-6.07 1-10.18 6.72-9.19 12.79l3.92 23.91-19.72-13.31c-5.09-3.44-12.01-2.1-15.45 3-0.97 1.43-1.56 3.01-1.79 4.61-0.06 0.36-0.09 0.73-0.1 1.07-0.05 0.9 0.02 1.8 0.19 2.67 0.18 0.87 0.44 1.72 0.82 2.55 0.15 0.31 0.31 0.64 0.49 0.95 0.82 1.39 1.96 2.64 3.39 3.61l19.71 13.31-23.65 5.3c-6 1.34-9.78 7.29-8.43 13.3 0.64 2.88 2.35 5.25 4.63 6.79 2.46 1.65 5.55 2.34 8.67 1.64l44.15-9.9 17.76 12c-3.33 7.57-5.19 15.93-5.19 24.72 0 8.89 1.9 17.33 5.3 24.97l-17.71 12.08-44.19-9.69c-3.12-0.68-6.22 0.02-8.66 1.68-2.26 1.54-3.97 3.92-4.59 6.81-1.32 6 2.48 11.94 8.49 13.26l23.67 5.19-19.66 13.41c-5.07 3.47-6.38 10.39-2.92 15.47 0.98 1.43 2.22 2.55 3.63 3.37 0.31 0.18 0.64 0.35 0.95 0.49 0.82 0.37 1.68 0.64 2.55 0.81 0.88 0.16 1.77 0.23 2.67 0.18 0.36-0.02 0.72-0.06 1.07-0.1 1.6-0.24 3.18-0.84 4.6-1.81l19.66-13.41-3.8 23.94c-0.97 6.08 3.18 11.77 9.24 12.74 2.93 0.46 5.76-0.25 8.02-1.8 2.44-1.67 4.22-4.3 4.72-7.45l7.11-44.68 17.72-12.09c8.7 8.79 20.02 14.97 32.67 17.29v21.43l-32.9 31.05c-2.32 2.19-3.5 5.13-3.5 8.1 0 2.74 1.01 5.48 3.04 7.64 4.22 4.46 11.27 4.67 15.74 0.45l17.62-16.63v23.79c0 6.14 4.99 11.13 11.14 11.13 1.73 0 3.36-0.39 4.83-1.1 0.32-0.15 0.64-0.33 0.94-0.51 0.77-0.47 1.47-1.02 2.1-1.65s1.18-1.33 1.64-2.1c0.19-0.3 0.35-0.61 0.52-0.94 0.7-1.45 1.1-3.09 1.1-4.82v-23.79l17.62 16.63c4.47 4.22 11.52 4.01 15.74-0.45 2.03-2.16 3.04-4.9 3.04-7.64 0-2.97-1.18-5.91-3.5-8.1l-32.9-31.05v-21.43c12.76-2.34 24.15-8.6 32.88-17.5l17.78 12.01 7.31 44.65c0.52 3.15 2.3 5.77 4.75 7.43 2.27 1.53 5.11 2.23 8.03 1.76 6.07-0.99 10.18-6.72 9.19-12.79l-3.92-23.91 19.72 13.31c1.48 1.01 3.13 1.6 4.79 1.81 0.3 0.04 0.6 0.07 0.89 0.08 1.25 0.06 2.51-0.09 3.7-0.44 0.1-0.03 0.22-0.06 0.31-0.1 0.43-0.15 0.84-0.31 1.25-0.5 0.2-0.09 0.39-0.19 0.6-0.3 0.1-0.06 0.2-0.11 0.29-0.17h0.01c0.27-0.16 0.53-0.32 0.78-0.5 0.49-0.35 0.95-0.73 1.39-1.15l0.27-0.27c0.08-0.09 0.16-0.18 0.23-0.27 0.09-0.09 0.18-0.19 0.26-0.29 0.24-0.29 0.47-0.59 0.69-0.9 0.21-0.32 0.41-0.65 0.59-0.98 0.06-0.1 0.11-0.22 0.18-0.33 0.05-0.11 0.1-0.23 0.15-0.34s0.1-0.23 0.15-0.34c0.21-0.51 0.38-1.03 0.51-1.56 0.09-0.35 0.16-0.71 0.21-1.06s0.09-0.72 0.1-1.07c0.02-0.36 0.02-0.72 0-1.07-0.16-3.39-1.86-6.66-4.89-8.7l-19.71-13.31 23.65-5.3c6.02-1.36 9.79-7.32 8.44-13.32zm-131.69 23.13c-32.18 0-58.37-26.18-58.37-58.37s26.18-58.38 58.37-58.38 58.37 26.19 58.37 58.38-26.19 58.37-58.37 58.37z" fill="url(#SVGID_00000128470563793433778740000013585850769886779290_)"/>
</g>
</svg>
