<?xml version="1.0" encoding="UTF-8"?>
<svg width="707.21" height="282.04" version="1.1" viewBox="0 0 707.21 282.04" xml:space="preserve" xmlns="http://www.w3.org/2000/svg">
<style type="text/css">
	.st0{fill:url(#SVGID_1_);}
	.st1{fill:url(#SVGID_00000146459139814528133300000005772307298581726603_);}
	.st2{fill:url(#SVGID_00000077322379648032737000000015425357847657828016_);}
	.st3{fill:url(#SVGID_00000000181814979641445660000002742013566650414754_);}
	.st4{fill:url(#SVGID_00000121979973032075148510000011680507769051515045_);}
	.st5{fill:url(#SVGID_00000177480612831982752680000011677642178695288708_);}
	.st6{fill:url(#SVGID_00000005982093433054961190000011808399872792509830_);}
	.st7{fill:url(#SVGID_00000179606581490476273740000015285396814722531473_);}
	.st8{fill:url(#SVGID_00000156545832368085406780000011375999575895095213_);}
	.st9{fill:url(#SVGID_00000126298550515111219080000001437862759087450022_);}
	.st10{fill:url(#SVGID_00000162331048166341834470000006521801778105136828_);}
	.st11{fill:url(#SVGID_00000021102481914474009530000011674059208963220115_);}
	.st12{fill:url(#SVGID_00000125572014932956234750000011409132778736918719_);}
	.st13{fill:url(#SVGID_00000043438704015414015690000001659609332021545654_);}
	.st14{fill:url(#SVGID_00000074443981428314819340000016450459215939327632_);}
	.st15{fill:url(#SVGID_00000144307406564220744300000003226843522902480769_);}
</style>
<g transform="translate(-246.4 -358.99)">
	
		<linearGradient id="SVGID_1_" x1="544.7" x2="544.7" y1="529.35" y2="425.18" gradientUnits="userSpaceOnUse">
			<stop stop-color="#8E06A0" offset="0"/>
			<stop stop-color="#1FA7EA" offset="1"/>
		</linearGradient>
		<path class="st0" d="m553.66 475.65c1.04 0 1.98 0.28 3.02 0.28 2.45 0 4.44-2.17 4.44-4.72 0-4.62-4.06-6.61-9.06-6.61-8.02 0-15.19 4.62-15.19 13.31v6.89h-3.11c-3.87 0-5.47 1.51-5.47 4.53s1.6 4.53 5.47 4.53h3.11v34.64c0 4.53 2.74 6.89 6.89 6.89s6.89-2.36 6.89-6.89v-34.64h4.25c4.06 0 6.23-1.23 6.23-4.53s-2.17-4.53-6.23-4.53h-4.25v-5.95c-0.01-1.88 1.03-3.2 3.01-3.2z" fill="url(#SVGID_1_)"/>
		
			<linearGradient id="SVGID_00000104668627363105419290000010154498557855197631_" x1="575.08" x2="575.08" y1="529.35" y2="425.18" gradientUnits="userSpaceOnUse">
			<stop stop-color="#8E06A0" offset="0"/>
			<stop stop-color="#1FA7EA" offset="1"/>
		</linearGradient>
		<path d="m575.08 464.99c-4.15 0-6.89 2.36-6.89 6.89v56.63c0 4.53 2.74 6.89 6.89 6.89s6.89-2.36 6.89-6.89v-56.63c0-4.53-2.73-6.89-6.89-6.89z" fill="url(#SVGID_00000104668627363105419290000010154498557855197631_)"/>
		
			<linearGradient id="SVGID_00000175296319162183618640000017269585334665426850_" x1="616.47" x2="616.47" y1="529.35" y2="425.18" gradientUnits="userSpaceOnUse">
			<stop stop-color="#8E06A0" offset="0"/>
			<stop stop-color="#1FA7EA" offset="1"/>
		</linearGradient>
		<path d="m639.45 497.73c0-9.91-9.15-14.16-22.37-14.16-14.16 0-21.9 6.98-21.9 12.46 0 2.83 2.36 5.29 5.85 5.29 5.47 0 5.76-7.55 15.95-7.55 4.62 0 8.68 1.7 8.68 5.66s-2.64 4.72-5.95 5.1l-8.4 0.94c-10.57 1.23-19.25 4.44-19.25 15.86 0 8.68 7.74 14.06 15.57 14.06 7.27 0 13.5-2.08 18.88-8.02 0.19 4.25 2.17 8.02 8.12 8.02 3.3 0 6.23-2.17 6.23-5.29 0-2.17-1.42-3.49-1.42-9.25v-23.12zm-13.78 18.6c0 5.1-4.62 10-12.17 10-4.72 0-7.64-2.55-7.64-5.66 0-4.15 3.11-5.95 8.87-6.79l5-0.75c1.6-0.28 4.44-0.75 5.95-2.17v5.37z" fill="url(#SVGID_00000175296319162183618640000017269585334665426850_)"/>
		
			<linearGradient id="SVGID_00000019654380214551676660000016796901978784720028_" x1="673.52" x2="673.52" y1="529.35" y2="425.18" gradientUnits="userSpaceOnUse">
			<stop stop-color="#8E06A0" offset="0"/>
			<stop stop-color="#1FA7EA" offset="1"/>
		</linearGradient>
		<path d="m679.93 505 10.19-10.67c1.23-1.32 2.08-2.08 2.08-4.53 0-3.49-3.4-6.23-6.51-6.23-2.08 0-3.87 1.13-5.28 2.64l-15.29 16.99v-31.33c0-4.53-2.74-6.89-6.89-6.89s-6.89 2.36-6.89 6.89v56.63c0 4.53 2.74 6.89 6.89 6.89s6.89-2.36 6.89-6.89v-10.48l4.81-4.25 13.02 18.4c1.04 1.51 2.83 3.21 6.23 3.21 3.68 0 6.51-3.21 6.51-6.7 0-2.27-0.94-3.78-1.42-4.44z" fill="url(#SVGID_00000019654380214551676660000016796901978784720028_)"/>
		
			<linearGradient id="SVGID_00000000201224153794007810000013579074715485245629_" x1="725.42" x2="725.42" y1="529.35" y2="425.18" gradientUnits="userSpaceOnUse">
			<stop stop-color="#8E06A0" offset="0"/>
			<stop stop-color="#1FA7EA" offset="1"/>
		</linearGradient>
		<path d="m725.99 483.58c-16.33 0-26.05 10.76-26.05 26.8 0 11.99 7.27 25.01 26.52 25.01 8.3 0 21.61-3.87 21.61-12.18 0-2.55-2.36-5.38-5.66-5.38-5.57 0-5.57 6.79-15.95 6.79-8.02 0-12.74-5.29-12.74-12.55h31.15c4.62 0 6.04-1.23 6.04-5.95-0.01-11.31-9.07-22.54-24.92-22.54zm-12.27 20.57c1.51-6.7 5.66-10.95 12.55-10.95 6.13 0 10.85 4.62 11.61 10.95z" fill="url(#SVGID_00000000201224153794007810000013579074715485245629_)"/>
		
			<linearGradient id="SVGID_00000011010382465752661130000009160729649630856084_" x1="779.64" x2="779.64" y1="529.35" y2="425.18" gradientUnits="userSpaceOnUse">
			<stop stop-color="#8E06A0" offset="0"/>
			<stop stop-color="#1FA7EA" offset="1"/>
		</linearGradient>
		<path d="m784.5 504.25-5.76-1.32c-4.25-0.94-7.36-1.7-7.36-4.91 0-2.93 3.11-4.25 7.93-4.25 8.68 0 8.87 6.32 14.25 6.32 3.59 0 5.76-2.83 5.76-6.04 0-6.32-10.57-10.48-21.05-10.48-9.53 0-20.67 4.15-20.67 15.38 0 9.25 6.23 12.55 14.25 14.53l8.12 1.98c4.91 1.23 7.93 1.79 7.93 5.29 0 2.83-3.11 5-8.02 5-10.19 0-10.76-8.49-16.71-8.49-3.87 0-5.57 2.74-5.57 5.76 0 6.79 10.38 12.36 22.84 12.36 10.38 0 21.24-5.19 21.24-16.42-0.01-9.62-9.35-12.92-17.18-14.71z" fill="url(#SVGID_00000011010382465752661130000009160729649630856084_)"/>
		
			<linearGradient id="SVGID_00000038407662118845032410000015675653966503787186_" x1="833.8" x2="833.8" y1="529.35" y2="425.18" gradientUnits="userSpaceOnUse">
			<stop stop-color="#8E06A0" offset="0"/>
			<stop stop-color="#1FA7EA" offset="1"/>
		</linearGradient>
		<path d="m839.8 483.58c-7.83 0-12.65 3.68-15.38 7.27h-0.19v-18.97c0-4.53-2.74-6.89-6.89-6.89s-6.89 2.36-6.89 6.89v56.63c0 3.68 1.51 6.89 6.89 6.89s6.89-3.21 6.89-6.89v-22.74c0-6.89 5.66-10.85 10.48-10.85 5.95 0 8.68 3.96 8.68 9.53v24.07c0 3.68 1.51 6.89 6.89 6.89s6.89-3.21 6.89-6.89v-26.8c-0.01-13.99-9.07-18.14-17.37-18.14z" fill="url(#SVGID_00000038407662118845032410000015675653966503787186_)"/>
		
			<linearGradient id="SVGID_00000000219904830201359980000001636907613318014851_" x1="891.51" x2="891.51" y1="529.35" y2="425.18" gradientUnits="userSpaceOnUse">
			<stop stop-color="#8E06A0" offset="0"/>
			<stop stop-color="#1FA7EA" offset="1"/>
		</linearGradient>
		<path d="m891.51 483.58c-16.61 0-25.48 11.33-25.48 25.86 0 13.78 6.7 25.95 25.48 25.95s25.48-12.18 25.48-25.95c0.01-14.54-8.87-25.86-25.48-25.86zm0 41.62c-8.21 0-11.7-7.36-11.7-15.76 0-8.97 3.68-15.67 11.7-15.67s11.7 6.7 11.7 15.67c0.01 8.4-3.49 15.76-11.7 15.76z" fill="url(#SVGID_00000000219904830201359980000001636907613318014851_)"/>
		
			<linearGradient id="SVGID_00000044886928529700903080000007013521025624330388_" x1="937.61" x2="937.61" y1="529.35" y2="425.18" gradientUnits="userSpaceOnUse">
			<stop stop-color="#8E06A0" offset="0"/>
			<stop stop-color="#1FA7EA" offset="1"/>
		</linearGradient>
		<path d="m948.8 524.63h-1.98c-2.45 0-3.59-1.13-3.59-3.21v-27.56h4.15c4.06 0 6.23-1.23 6.23-4.53s-2.17-4.53-6.23-4.53h-4.15v-8.4c0-4.53-2.74-6.89-6.89-6.89s-6.89 2.36-6.89 6.89v8.4h-2.36c-3.87 0-5.47 1.51-5.47 4.53s1.6 4.53 5.47 4.53h2.36v29.26c0 8.12 4.15 12.27 14.16 12.27 6.61 0 10-2.17 10-6.13 0-2.93-1.79-4.63-4.81-4.63z" fill="url(#SVGID_00000044886928529700903080000007013521025624330388_)"/>
	
	
		
			<linearGradient id="SVGID_00000051375364175194337800000017924622472545244811_" x1="342.5" x2="342.5" y1="511.22" y2="443.48" gradientUnits="userSpaceOnUse">
			<stop stop-color="#8E06A0" offset="0"/>
			<stop stop-color="#1FA7EA" offset="1"/>
		</linearGradient>
		<path d="m326.41 476.93c-2.18 4.35-3.77 9.08-4.66 14.12-2.2 12.49 0.29 24.71 6.22 34.87l36.08-42.35z" fill="url(#SVGID_00000051375364175194337800000017924622472545244811_)"/>
		
			<linearGradient id="SVGID_00000139982760027058551930000016634015567086562206_" x1="355.08" x2="355.08" y1="511.22" y2="443.48" gradientUnits="userSpaceOnUse">
			<stop stop-color="#8E06A0" offset="0"/>
			<stop stop-color="#1FA7EA" offset="1"/>
		</linearGradient>
		<path d="m369.78 448.55c-17.72 0.91-33.68 10.98-42.24 26.25l55.09 9.72z" fill="url(#SVGID_00000139982760027058551930000016634015567086562206_)"/>
		
			<linearGradient id="SVGID_00000066479163415606585700000015194740097749076143_" x1="402.44" x2="402.44" y1="511.22" y2="443.48" gradientUnits="userSpaceOnUse">
			<stop stop-color="#8E06A0" offset="0"/>
			<stop stop-color="#1FA7EA" offset="1"/>
		</linearGradient>
		<path d="m418.53 523.07c2.18-4.35 3.77-9.08 4.66-14.12 2.2-12.48-0.29-24.7-6.2-34.85l-36.09 42.33z" fill="url(#SVGID_00000066479163415606585700000015194740097749076143_)"/>
		
			<linearGradient id="SVGID_00000010285857595266897760000002093477562438401718_" x1="393.96" x2="393.96" y1="511.22" y2="443.48" gradientUnits="userSpaceOnUse">
			<stop stop-color="#8E06A0" offset="0"/>
			<stop stop-color="#1FA7EA" offset="1"/>
		</linearGradient>
		<path d="m415.73 472.05c-7.5-11.61-19.62-20.18-34.31-22.77-3.1-0.55-6.19-0.8-9.24-0.79l18.79 52.6z" fill="url(#SVGID_00000010285857595266897760000002093477562438401718_)"/>
		
			<linearGradient id="SVGID_00000044143852709912942190000016021899044077825981_" x1="351.29" x2="351.29" y1="511.22" y2="443.48" gradientUnits="userSpaceOnUse">
			<stop stop-color="#8E06A0" offset="0"/>
			<stop stop-color="#1FA7EA" offset="1"/>
		</linearGradient>
		<path d="m363.52 550.72c3.31 0.58 6.59 0.83 9.83 0.78l-19.36-52.6-24.76 29.07c7.5 11.6 19.61 20.16 34.29 22.75z" fill="url(#SVGID_00000044143852709912942190000016021899044077825981_)"/>
		
			<linearGradient id="SVGID_00000011736831298362459870000006743887001779512730_" x1="389.97" x2="389.97" y1="511.22" y2="443.48" gradientUnits="userSpaceOnUse">
			<stop stop-color="#8E06A0" offset="0"/>
			<stop stop-color="#1FA7EA" offset="1"/>
		</linearGradient>
		<path d="m375.75 551.41c17.49-1.1 33.18-11.11 41.65-26.21l-54.87-9.68z" fill="url(#SVGID_00000011736831298362459870000006743887001779512730_)"/>
	
	
		<linearGradient id="SVGID_00000177481966466020182130000002619223780004580790_" x1="372.47" x2="372.47" y1="537.43" y2="322.74" gradientUnits="userSpaceOnUse">
		<stop stop-color="#8E06A0" offset="0"/>
		<stop stop-color="#1FA7EA" offset="1"/>
	</linearGradient>
	<path d="m498.29 533.67c-0.62-2.75-2.25-5.01-4.42-6.48-2.35-1.58-5.31-2.23-8.28-1.56l-42.18 9.46-16.97-11.46c3.18-7.23 4.95-15.21 4.95-23.61 0-8.49-1.82-16.56-5.07-23.86l16.92-11.54 42.22 9.26c2.98 0.65 5.94-0.02 8.28-1.6 2.16-1.48 3.79-3.76 4.4-6.51 1.26-5.74-2.38-11.41-8.12-12.67l-22.62-4.96 18.79-12.81c1.42-0.96 2.52-2.21 3.3-3.61 0.14-0.25 0.27-0.5 0.38-0.76 0.49-1.09 0.79-2.26 0.91-3.44 0.01-0.11 0.02-0.22 0.02-0.32 0.02-0.42 0.02-0.85 0-1.28-0.01-0.21-0.03-0.42-0.05-0.63v-0.01c-0.02-0.11-0.03-0.22-0.05-0.32-0.05-0.3-0.1-0.59-0.17-0.88-0.13-0.55-0.31-1.1-0.53-1.63-0.05-0.12-0.1-0.22-0.15-0.34-0.05-0.1-0.09-0.2-0.15-0.3-0.05-0.11-0.11-0.22-0.16-0.32-0.18-0.32-0.36-0.62-0.57-0.93-0.21-0.3-0.42-0.59-0.65-0.86l-0.24-0.27c-0.08-0.09-0.16-0.18-0.25-0.26-0.08-0.09-0.16-0.17-0.24-0.25-0.38-0.37-0.79-0.7-1.22-1.01-0.28-0.2-0.58-0.39-0.87-0.56-0.3-0.17-0.6-0.32-0.91-0.47-0.32-0.14-0.63-0.26-0.95-0.38-3.06-1.05-6.57-0.69-9.45 1.27l-18.78 12.81 3.63-22.87c0.92-5.81-3.03-11.25-8.83-12.17-2.8-0.44-5.51 0.24-7.66 1.72-2.33 1.59-4.03 4.1-4.51 7.11l-6.79 42.69-16.93 11.55c-8.31-8.4-19.12-14.3-31.21-16.52v-20.47l31.43-29.67c2.22-2.09 3.34-4.9 3.34-7.73 0-2.63-0.96-5.24-2.9-7.3-4.03-4.27-10.76-4.47-15.04-0.44l-16.83 15.89v-22.73c0-1.72-0.41-3.34-1.13-4.77-0.13-0.26-0.26-0.51-0.42-0.75-0.62-1.03-1.41-1.94-2.33-2.69-0.08-0.07-0.16-0.14-0.25-0.2-0.34-0.26-0.69-0.5-1.06-0.72-0.18-0.11-0.36-0.21-0.55-0.32h-0.01c-0.09-0.05-0.18-0.09-0.28-0.14-0.27-0.13-0.54-0.25-0.82-0.35-0.53-0.21-1.09-0.37-1.65-0.49-0.12-0.02-0.24-0.05-0.36-0.06-0.12-0.02-0.22-0.04-0.34-0.05-0.12-0.02-0.24-0.04-0.36-0.05-0.35-0.04-0.72-0.06-1.09-0.06-0.36 0-0.73 0.02-1.09 0.06-0.12 0.01-0.24 0.02-0.36 0.04s-0.23 0.03-0.35 0.05-0.24 0.04-0.35 0.06c-0.52 0.11-1.02 0.25-1.52 0.43-0.32 0.12-0.64 0.25-0.95 0.41-0.31 0.15-0.61 0.31-0.9 0.49s-0.58 0.37-0.85 0.58c-2.59 1.93-4.28 5.04-4.28 8.52v22.73l-16.81-15.91c-4.27-4.03-11.01-3.83-15.04 0.44-1.94 2.06-2.9 4.67-2.9 7.3 0 2.83 1.12 5.64 3.34 7.73l31.43 29.67v20.47c-12.18 2.23-23.07 8.22-31.41 16.72l-16.99-11.48-6.98-42.66c-0.49-3-2.19-5.51-4.54-7.1-2.17-1.46-4.88-2.13-7.67-1.68-5.8 0.95-9.72 6.42-8.78 12.22l3.74 22.85-18.84-12.72c-4.86-3.29-11.47-2.01-14.76 2.86-0.92 1.37-1.49 2.87-1.71 4.4-0.05 0.35-0.08 0.69-0.1 1.02-0.05 0.86 0.02 1.72 0.18 2.55 0.17 0.83 0.42 1.65 0.79 2.43 0.14 0.3 0.3 0.61 0.47 0.91 0.79 1.33 1.87 2.52 3.24 3.45l18.83 12.72-22.59 5.07c-5.74 1.28-9.34 6.97-8.05 12.7 0.62 2.75 2.25 5.02 4.42 6.48 2.35 1.58 5.31 2.23 8.28 1.56l42.18-9.46 16.97 11.46c-3.18 7.24-4.96 15.22-4.96 23.62 0 8.49 1.82 16.56 5.07 23.86l-16.92 11.54-42.22-9.26c-2.98-0.65-5.94 0.02-8.28 1.61-2.16 1.47-3.79 3.75-4.39 6.51-1.26 5.74 2.37 11.41 8.11 12.67l22.61 4.96-18.78 12.81c-4.84 3.31-6.1 9.92-2.79 14.78 0.93 1.37 2.13 2.44 3.46 3.22 0.3 0.17 0.61 0.33 0.91 0.47 0.79 0.35 1.61 0.62 2.43 0.77 0.84 0.15 1.69 0.22 2.55 0.17 0.35-0.02 0.69-0.05 1.02-0.1 1.53-0.23 3.03-0.8 4.4-1.73l18.78-12.81-3.63 22.87c-0.92 5.81 3.03 11.25 8.83 12.17 2.8 0.44 5.51-0.24 7.66-1.72 2.33-1.59 4.03-4.1 4.51-7.11l6.79-42.69 16.93-11.55c8.31 8.4 19.12 14.3 31.21 16.52v20.47l-31.43 29.67c-2.22 2.09-3.34 4.9-3.34 7.74 0 2.62 0.96 5.24 2.9 7.3 4.03 4.27 10.76 4.47 15.04 0.43l16.83-15.88v22.73c0 5.87 4.77 10.63 10.64 10.63 1.66 0 3.21-0.38 4.61-1.05 0.31-0.15 0.61-0.32 0.9-0.49 0.73-0.45 1.41-0.98 2.01-1.58s1.13-1.27 1.57-2.01c0.18-0.28 0.34-0.59 0.49-0.9 0.67-1.39 1.05-2.96 1.05-4.6v-22.73l16.83 15.88c4.27 4.03 11.01 3.83 15.04-0.43 1.94-2.06 2.9-4.68 2.9-7.3 0-2.83-1.12-5.64-3.34-7.74l-31.43-29.67v-20.47c12.19-2.23 23.07-8.22 31.41-16.72l16.99 11.48 6.98 42.66c0.49 3.01 2.19 5.51 4.54 7.1 2.17 1.46 4.88 2.13 7.67 1.68 5.8-0.95 9.72-6.42 8.78-12.22l-3.74-22.85 18.84 12.72c1.42 0.96 2.99 1.53 4.57 1.73 0.28 0.04 0.57 0.07 0.85 0.08 1.19 0.06 2.39-0.08 3.53-0.42 0.1-0.03 0.21-0.06 0.3-0.09 0.41-0.14 0.8-0.29 1.19-0.48 0.19-0.08 0.38-0.18 0.57-0.28 0.09-0.05 0.19-0.11 0.28-0.16h0.01c0.26-0.15 0.51-0.31 0.75-0.48 0.47-0.33 0.91-0.69 1.32-1.1l0.25-0.25c0.08-0.08 0.15-0.17 0.22-0.25 0.08-0.08 0.17-0.18 0.25-0.28 0.23-0.28 0.45-0.56 0.65-0.86 0.2-0.31 0.39-0.62 0.56-0.94 0.05-0.1 0.11-0.21 0.17-0.32 0.05-0.11 0.1-0.22 0.15-0.32 0.05-0.11 0.1-0.22 0.15-0.32 0.2-0.49 0.36-0.99 0.49-1.49 0.08-0.34 0.15-0.68 0.2-1.02s0.08-0.69 0.1-1.02c0.02-0.35 0.02-0.69 0-1.02-0.15-3.24-1.78-6.36-4.67-8.32l-18.83-12.72 22.59-5.07c5.77-1.3 9.38-6.99 8.09-12.72zm-125.82 22.1c-30.75 0-55.76-25.02-55.76-55.76 0-30.75 25.02-55.77 55.76-55.77s55.76 25.02 55.76 55.77c0.01 30.74-25.01 55.76-55.76 55.76z" fill="url(#SVGID_00000177481966466020182130000002619223780004580790_)"/>
</g>
</svg>
