<?xml version="1.0" encoding="utf-8"?>
<!-- Generator: Adobe Illustrator 27.0.0, SVG Export Plug-In . SVG Version: 6.00 Build 0)  -->
<svg version="1.1" id="Layer_1" xmlns="http://www.w3.org/2000/svg" xmlns:xlink="http://www.w3.org/1999/xlink" x="0px" y="0px"
	 viewBox="0 0 1200 1000" style="enable-background:new 0 0 1200 1000;" xml:space="preserve">
<style type="text/css">
	.st0{fill:url(#SVGID_1_);}
	.st1{fill:url(#SVGID_00000109750138408713713690000015621967008861332390_);}
	.st2{fill:url(#SVGID_00000130613136941668399500000016582064700794897852_);}
	.st3{fill:url(#SVGID_00000062183363586535341720000004882328604214055828_);}
	.st4{fill:url(#SVGID_00000153671342979343163040000005889938672165948584_);}
	.st5{fill:url(#SVGID_00000173122901068280978380000016579777808571403448_);}
	.st6{fill:url(#SVGID_00000110455527664248806360000010095273598712159112_);}
	.st7{fill:url(#SVGID_00000163062513176870582140000018420088075173222798_);}
	.st8{fill:url(#SVGID_00000126291490896446190170000015752163531947613878_);}
	.st9{fill:url(#SVGID_00000091705564762305234240000010134042256423529640_);}
	.st10{fill:url(#SVGID_00000031185733665754883210000015437351829538618269_);}
	.st11{fill:url(#SVGID_00000132808011727645696610000006889557944678540930_);}
	.st12{fill:url(#SVGID_00000045602444886110226040000006798570187856421537_);}
	.st13{fill:url(#SVGID_00000053518838307656945950000017988915053172528032_);}
	.st14{fill:url(#SVGID_00000090996970988896050970000017053911362275319966_);}
	.st15{fill:url(#SVGID_00000181087276251624002330000007541017542178790533_);}
</style>
<g>
	<g>
		<linearGradient id="SVGID_1_" gradientUnits="userSpaceOnUse" x1="540.3225" y1="413.5497" x2="540.3225" y2="537.1943">
			<stop  offset="0" style="stop-color:#090979"/>
			<stop  offset="0.5019" style="stop-color:#8E06A0"/>
			<stop  offset="1" style="stop-color:#1FA7EA"/>
		</linearGradient>
		<path class="st0" d="M550,473.72c1.12,0,2.14,0.31,3.26,0.31c2.65,0,4.79-2.34,4.79-5.09c0-4.99-4.38-7.13-9.78-7.13
			c-8.66,0-16.4,4.99-16.4,14.36v7.43h-3.36c-4.18,0-5.91,1.63-5.91,4.89c0,3.26,1.73,4.89,5.91,4.89h3.36v37.38
			c0,4.89,2.95,7.43,7.43,7.43c4.48,0,7.43-2.55,7.43-7.43v-37.38h4.58c4.38,0,6.72-1.32,6.72-4.89c0-3.56-2.34-4.89-6.72-4.89
			h-4.58v-6.42C546.74,475.15,547.86,473.72,550,473.72z"/>
		
			<linearGradient id="SVGID_00000060715533686519104270000016797455975235075255_" gradientUnits="userSpaceOnUse" x1="573.1135" y1="413.5497" x2="573.1135" y2="537.1943">
			<stop  offset="0" style="stop-color:#090979"/>
			<stop  offset="0.5019" style="stop-color:#8E06A0"/>
			<stop  offset="1" style="stop-color:#1FA7EA"/>
		</linearGradient>
		<path style="fill:url(#SVGID_00000060715533686519104270000016797455975235075255_);" d="M573.11,462.22
			c-4.48,0-7.43,2.55-7.43,7.43v61.11c0,4.89,2.95,7.43,7.43,7.43s7.43-2.55,7.43-7.43v-61.11
			C580.55,464.76,577.59,462.22,573.11,462.22z"/>
		
			<linearGradient id="SVGID_00000065771187897766929410000017886096500275281303_" gradientUnits="userSpaceOnUse" x1="617.7712" y1="413.5497" x2="617.7712" y2="537.1943">
			<stop  offset="0" style="stop-color:#090979"/>
			<stop  offset="0.5019" style="stop-color:#8E06A0"/>
			<stop  offset="1" style="stop-color:#1FA7EA"/>
		</linearGradient>
		<path style="fill:url(#SVGID_00000065771187897766929410000017886096500275281303_);" d="M642.57,497.56
			c0-10.69-9.88-15.28-24.14-15.28c-15.28,0-23.63,7.54-23.63,13.44c0,3.06,2.55,5.7,6.31,5.7c5.91,0,6.21-8.15,17.21-8.15
			c4.99,0,9.37,1.83,9.37,6.11c0,4.28-2.85,5.09-6.42,5.5l-9.06,1.02c-11.41,1.32-20.78,4.79-20.78,17.11
			c0,9.37,8.35,15.17,16.8,15.17c7.84,0,14.56-2.24,20.37-8.66c0.2,4.58,2.34,8.66,8.76,8.66c3.56,0,6.72-2.34,6.72-5.7
			c0-2.34-1.53-3.77-1.53-9.98V497.56z M627.7,517.62c0,5.5-4.99,10.8-13.14,10.8c-5.09,0-8.25-2.75-8.25-6.11
			c0-4.48,3.36-6.42,9.57-7.33l5.4-0.81c1.73-0.31,4.79-0.81,6.42-2.34V517.62z"/>
		
			<linearGradient id="SVGID_00000031902026136184562770000016763057076894512563_" gradientUnits="userSpaceOnUse" x1="679.332" y1="413.5497" x2="679.332" y2="537.1943">
			<stop  offset="0" style="stop-color:#090979"/>
			<stop  offset="0.5019" style="stop-color:#8E06A0"/>
			<stop  offset="1" style="stop-color:#1FA7EA"/>
		</linearGradient>
		<path style="fill:url(#SVGID_00000031902026136184562770000016763057076894512563_);" d="M686.26,505.4l11-11.51
			c1.32-1.43,2.24-2.24,2.24-4.89c0-3.77-3.67-6.72-7.03-6.72c-2.24,0-4.18,1.22-5.7,2.85l-16.5,18.33v-33.81
			c0-4.89-2.95-7.43-7.43-7.43c-4.48,0-7.43,2.55-7.43,7.43v61.11c0,4.89,2.95,7.43,7.43,7.43c4.48,0,7.43-2.55,7.43-7.43v-11.31
			l5.19-4.58l14.05,19.86c1.12,1.63,3.06,3.46,6.72,3.46c3.97,0,7.03-3.46,7.03-7.23c0-2.44-1.02-4.07-1.53-4.79L686.26,505.4z"/>
		
			<linearGradient id="SVGID_00000104705324988792741310000017435115142947394485_" gradientUnits="userSpaceOnUse" x1="735.3417" y1="413.5497" x2="735.3417" y2="537.1943">
			<stop  offset="0" style="stop-color:#090979"/>
			<stop  offset="0.5019" style="stop-color:#8E06A0"/>
			<stop  offset="1" style="stop-color:#1FA7EA"/>
		</linearGradient>
		<path style="fill:url(#SVGID_00000104705324988792741310000017435115142947394485_);" d="M735.95,482.28
			c-17.62,0-28.11,11.61-28.11,28.92c0,12.93,7.84,26.99,28.62,26.99c8.96,0,23.32-4.18,23.32-13.14c0-2.75-2.55-5.8-6.11-5.8
			c-6.01,0-6.01,7.33-17.21,7.33c-8.66,0-13.75-5.7-13.75-13.55h33.61c4.99,0,6.52-1.32,6.52-6.42
			C762.84,494.4,753.06,482.28,735.95,482.28z M722.71,504.48c1.63-7.23,6.11-11.81,13.55-11.81c6.62,0,11.71,4.99,12.53,11.81
			H722.71z"/>
		
			<linearGradient id="SVGID_00000060014707496720166550000016466455663850054568_" gradientUnits="userSpaceOnUse" x1="793.8477" y1="413.5497" x2="793.8477" y2="537.1943">
			<stop  offset="0" style="stop-color:#090979"/>
			<stop  offset="0.5019" style="stop-color:#8E06A0"/>
			<stop  offset="1" style="stop-color:#1FA7EA"/>
		</linearGradient>
		<path style="fill:url(#SVGID_00000060014707496720166550000016466455663850054568_);" d="M799.09,504.58l-6.21-1.43
			c-4.58-1.02-7.94-1.83-7.94-5.3c0-3.16,3.36-4.58,8.56-4.58c9.37,0,9.57,6.82,15.38,6.82c3.87,0,6.21-3.05,6.21-6.52
			c0-6.82-11.41-11.31-22.71-11.31c-10.29,0-22.3,4.48-22.3,16.6c0,9.98,6.72,13.54,15.38,15.68l8.76,2.14
			c5.3,1.32,8.55,1.94,8.55,5.7c0,3.05-3.36,5.4-8.66,5.4c-11,0-11.61-9.17-18.03-9.17c-4.18,0-6.01,2.95-6.01,6.21
			c0,7.33,11.2,13.34,24.65,13.34c11.2,0,22.92-5.6,22.92-17.72C817.63,510.08,807.55,506.52,799.09,504.58z"/>
		
			<linearGradient id="SVGID_00000143579411079246392890000007827923111343028610_" gradientUnits="userSpaceOnUse" x1="852.3014" y1="413.5497" x2="852.3014" y2="537.1943">
			<stop  offset="0" style="stop-color:#090979"/>
			<stop  offset="0.5019" style="stop-color:#8E06A0"/>
			<stop  offset="1" style="stop-color:#1FA7EA"/>
		</linearGradient>
		<path style="fill:url(#SVGID_00000143579411079246392890000007827923111343028610_);" d="M858.77,482.28
			c-8.45,0-13.65,3.97-16.6,7.84h-0.2v-20.47c0-4.89-2.95-7.43-7.43-7.43c-4.48,0-7.43,2.55-7.43,7.43v61.11
			c0,3.97,1.63,7.43,7.43,7.43c5.81,0,7.43-3.46,7.43-7.43v-24.54c0-7.43,6.11-11.71,11.31-11.71c6.42,0,9.37,4.28,9.37,10.29v25.97
			c0,3.97,1.63,7.43,7.43,7.43c5.81,0,7.43-3.46,7.43-7.43v-28.92C877.51,486.76,867.73,482.28,858.77,482.28z"/>
		
			<linearGradient id="SVGID_00000082333151657071907140000009560543812573355683_" gradientUnits="userSpaceOnUse" x1="914.5757" y1="413.5497" x2="914.5757" y2="537.1943">
			<stop  offset="0" style="stop-color:#090979"/>
			<stop  offset="0.5019" style="stop-color:#8E06A0"/>
			<stop  offset="1" style="stop-color:#1FA7EA"/>
		</linearGradient>
		<path style="fill:url(#SVGID_00000082333151657071907140000009560543812573355683_);" d="M914.58,482.28
			c-17.92,0-27.5,12.22-27.5,27.91c0,14.87,7.23,28.01,27.5,28.01c20.27,0,27.5-13.14,27.5-28.01
			C942.07,494.5,932.5,482.28,914.58,482.28z M914.58,527.19c-8.86,0-12.63-7.94-12.63-17.01c0-9.68,3.97-16.91,12.63-16.91
			c8.66,0,12.63,7.23,12.63,16.91C927.2,519.25,923.44,527.19,914.58,527.19z"/>
		
			<linearGradient id="SVGID_00000178194531773187372040000006520856682190970497_" gradientUnits="userSpaceOnUse" x1="964.3232" y1="413.5497" x2="964.3232" y2="537.1943">
			<stop  offset="0" style="stop-color:#090979"/>
			<stop  offset="0.5019" style="stop-color:#8E06A0"/>
			<stop  offset="1" style="stop-color:#1FA7EA"/>
		</linearGradient>
		<path style="fill:url(#SVGID_00000178194531773187372040000006520856682190970497_);" d="M976.39,526.58h-2.14
			c-2.65,0-3.87-1.22-3.87-3.46v-29.74h4.48c4.38,0,6.72-1.32,6.72-4.89c0-3.56-2.34-4.89-6.72-4.89h-4.48v-9.06
			c0-4.89-2.95-7.43-7.43-7.43c-4.48,0-7.43,2.55-7.43,7.43v9.06h-2.55c-4.18,0-5.91,1.63-5.91,4.89c0,3.26,1.73,4.89,5.91,4.89
			h2.55v31.57c0,8.76,4.48,13.24,15.28,13.24c7.13,0,10.8-2.34,10.8-6.62C981.59,528.41,979.65,526.58,976.39,526.58z"/>
	</g>
	<g>
		<g>
			
				<linearGradient id="SVGID_00000019638838131078875300000014380543861124450985_" gradientUnits="userSpaceOnUse" x1="322.1278" y1="358.5485" x2="322.1278" y2="610.1837">
				<stop  offset="0" style="stop-color:#090979"/>
				<stop  offset="0.5019" style="stop-color:#8E06A0"/>
				<stop  offset="1" style="stop-color:#1FA7EA"/>
			</linearGradient>
			<path style="fill:url(#SVGID_00000019638838131078875300000014380543861124450985_);" d="M304.77,475.1
				c-2.35,4.7-4.07,9.8-5.03,15.24c-2.38,13.47,0.32,26.67,6.71,37.63l38.93-45.7L304.77,475.1z"/>
			
				<linearGradient id="SVGID_00000039112425331144163280000011596229489907782805_" gradientUnits="userSpaceOnUse" x1="335.7055" y1="358.5485" x2="335.7055" y2="610.1837">
				<stop  offset="0" style="stop-color:#090979"/>
				<stop  offset="0.5019" style="stop-color:#8E06A0"/>
				<stop  offset="1" style="stop-color:#1FA7EA"/>
			</linearGradient>
			<path style="fill:url(#SVGID_00000039112425331144163280000011596229489907782805_);" d="M351.56,444.48
				c-19.12,0.98-36.34,11.85-45.58,28.33l59.45,10.49L351.56,444.48z"/>
			
				<linearGradient id="SVGID_00000161612940818922737880000007068072835010973615_" gradientUnits="userSpaceOnUse" x1="386.8139" y1="358.5485" x2="386.8139" y2="610.1837">
				<stop  offset="0" style="stop-color:#090979"/>
				<stop  offset="0.5019" style="stop-color:#8E06A0"/>
				<stop  offset="1" style="stop-color:#1FA7EA"/>
			</linearGradient>
			<path style="fill:url(#SVGID_00000161612940818922737880000007068072835010973615_);" d="M404.18,524.9
				c2.35-4.7,4.07-9.8,5.03-15.24c2.38-13.46-0.31-26.65-6.69-37.61l-38.94,45.68L404.18,524.9z"/>
			
				<linearGradient id="SVGID_00000008132896028376132710000015450036106598580621_" gradientUnits="userSpaceOnUse" x1="377.6575" y1="358.5485" x2="377.6575" y2="610.1837">
				<stop  offset="0" style="stop-color:#090979"/>
				<stop  offset="0.5019" style="stop-color:#8E06A0"/>
				<stop  offset="1" style="stop-color:#1FA7EA"/>
			</linearGradient>
			<path style="fill:url(#SVGID_00000008132896028376132710000015450036106598580621_);" d="M401.15,469.84
				c-8.1-12.52-21.18-21.78-37.02-24.57c-3.35-0.59-6.68-0.87-9.97-0.85l20.27,56.76L401.15,469.84z"/>
			
				<linearGradient id="SVGID_00000175320239292019788060000002338587684710623418_" gradientUnits="userSpaceOnUse" x1="331.6102" y1="358.5485" x2="331.6102" y2="610.1837">
				<stop  offset="0" style="stop-color:#090979"/>
				<stop  offset="0.5019" style="stop-color:#8E06A0"/>
				<stop  offset="1" style="stop-color:#1FA7EA"/>
			</linearGradient>
			<path style="fill:url(#SVGID_00000175320239292019788060000002338587684710623418_);" d="M344.81,554.74
				c3.57,0.63,7.11,0.9,10.61,0.84l-20.89-56.76l-26.72,31.36C315.9,542.7,328.98,551.94,344.81,554.74z"/>
			
				<linearGradient id="SVGID_00000120518089420751435060000007347556669181270934_" gradientUnits="userSpaceOnUse" x1="373.356" y1="358.5485" x2="373.356" y2="610.1837">
				<stop  offset="0" style="stop-color:#090979"/>
				<stop  offset="0.5019" style="stop-color:#8E06A0"/>
				<stop  offset="1" style="stop-color:#1FA7EA"/>
			</linearGradient>
			<path style="fill:url(#SVGID_00000120518089420751435060000007347556669181270934_);" d="M358.01,555.48
				c18.87-1.19,35.81-11.99,44.95-28.29l-59.21-10.45L358.01,555.48z"/>
		</g>
		
			<linearGradient id="SVGID_00000051380277357010933320000017413844016522707641_" gradientUnits="userSpaceOnUse" x1="354.4706" y1="358.5485" x2="354.4706" y2="610.1837">
			<stop  offset="0" style="stop-color:#090979"/>
			<stop  offset="0.5019" style="stop-color:#8E06A0"/>
			<stop  offset="1" style="stop-color:#1FA7EA"/>
		</linearGradient>
		<path style="fill:url(#SVGID_00000051380277357010933320000017413844016522707641_);" d="M490.25,536.33
			c-0.66-2.97-2.43-5.41-4.77-7c-2.53-1.7-5.72-2.41-8.94-1.69l-45.52,10.2l-18.31-12.37c3.43-7.81,5.34-16.42,5.34-25.48
			c0-9.16-1.96-17.87-5.47-25.75l18.26-12.46l45.56,9.99c3.22,0.7,6.41-0.02,8.93-1.73c2.33-1.6,4.09-4.05,4.74-7.03
			c1.35-6.19-2.57-12.31-8.76-13.67l-24.41-5.35l20.27-13.83c1.53-1.04,2.72-2.38,3.56-3.9c0.15-0.27,0.29-0.54,0.42-0.82
			c0.53-1.18,0.86-2.43,0.98-3.71c0.01-0.12,0.02-0.23,0.02-0.35c0.02-0.46,0.02-0.91,0-1.38c-0.01-0.22-0.03-0.45-0.06-0.68
			c0,0,0,0,0-0.01c-0.02-0.12-0.03-0.23-0.05-0.34c-0.05-0.32-0.11-0.63-0.18-0.95c-0.14-0.6-0.33-1.19-0.57-1.76
			c-0.06-0.12-0.11-0.24-0.17-0.37c-0.05-0.11-0.1-0.22-0.16-0.32c-0.06-0.12-0.12-0.23-0.17-0.35c-0.19-0.35-0.39-0.67-0.61-1.01
			c-0.22-0.32-0.46-0.64-0.71-0.93c-0.09-0.1-0.17-0.2-0.26-0.29c-0.08-0.1-0.17-0.19-0.27-0.28c-0.08-0.1-0.17-0.18-0.26-0.27
			c-0.42-0.4-0.86-0.76-1.31-1.09c-0.31-0.22-0.62-0.42-0.94-0.61c-0.32-0.18-0.65-0.35-0.98-0.51c-0.34-0.15-0.68-0.28-1.03-0.41
			c-3.31-1.14-7.09-0.75-10.2,1.37l-20.27,13.83l3.92-24.68c1-6.26-3.27-12.14-9.53-13.14c-3.02-0.47-5.94,0.26-8.27,1.85
			c-2.52,1.72-4.35,4.43-4.87,7.68l-7.33,46.06l-18.27,12.46c-8.97-9.06-20.64-15.43-33.68-17.83v-22.09l33.92-32.01
			c2.39-2.26,3.61-5.29,3.61-8.34c0-2.83-1.04-5.66-3.13-7.88c-4.35-4.61-11.62-4.83-16.23-0.47l-18.16,17.15v-24.53
			c0-1.86-0.44-3.61-1.22-5.14c-0.14-0.28-0.28-0.55-0.45-0.81c-0.66-1.11-1.52-2.09-2.51-2.91c-0.09-0.07-0.17-0.15-0.27-0.22
			c-0.37-0.28-0.75-0.54-1.15-0.78c-0.19-0.12-0.39-0.22-0.6-0.34c0,0,0,0-0.01,0c-0.1-0.05-0.2-0.1-0.31-0.15
			c-0.29-0.14-0.58-0.27-0.88-0.38c-0.57-0.22-1.17-0.4-1.78-0.52c-0.13-0.02-0.26-0.05-0.39-0.07c-0.12-0.02-0.24-0.04-0.37-0.05
			c-0.13-0.02-0.26-0.04-0.39-0.05c-0.38-0.04-0.77-0.07-1.17-0.07c-0.39,0-0.79,0.02-1.17,0.07c-0.12,0.01-0.26,0.02-0.39,0.04
			c-0.12,0.02-0.25,0.03-0.37,0.06c-0.12,0.02-0.26,0.04-0.37,0.07c-0.57,0.12-1.11,0.27-1.64,0.47c-0.35,0.13-0.69,0.27-1.03,0.44
			c-0.33,0.16-0.66,0.33-0.97,0.52c-0.32,0.2-0.62,0.4-0.91,0.62c-2.8,2.09-4.62,5.43-4.62,9.2v24.53l-18.16-17.15
			c-4.61-4.35-11.88-4.14-16.23,0.47c-2.09,2.22-3.13,5.04-3.13,7.88c0,3.05,1.21,6.08,3.61,8.34l33.92,32.01v22.09
			c-13.15,2.41-24.89,8.87-33.89,18.04l-18.34-12.38l-7.54-46.03c-0.53-3.24-2.37-5.95-4.9-7.66c-2.34-1.58-5.27-2.3-8.28-1.81
			c-6.26,1.03-10.49,6.93-9.47,13.19l4.04,24.65l-20.33-13.73c-5.24-3.55-12.38-2.17-15.93,3.09c-1,1.48-1.6,3.1-1.84,4.75
			c-0.06,0.37-0.09,0.75-0.11,1.11c-0.05,0.93,0.02,1.85,0.19,2.75c0.18,0.9,0.46,1.78,0.85,2.63c0.15,0.32,0.32,0.66,0.51,0.98
			c0.85,1.44,2.02,2.72,3.5,3.72l20.32,13.73l-24.38,5.47c-6.19,1.38-10.08,7.52-8.69,13.71c0.66,2.97,2.43,5.42,4.77,7
			c2.53,1.7,5.72,2.41,8.94,1.69l45.52-10.2l18.31,12.37c-3.43,7.81-5.35,16.43-5.35,25.49c0,9.16,1.96,17.87,5.47,25.75
			L278.1,538.2l-45.56-9.99c-3.22-0.7-6.41,0.02-8.93,1.74c-2.33,1.59-4.09,4.05-4.74,7.02c-1.36,6.19,2.56,12.31,8.75,13.67
			l24.4,5.35l-20.27,13.83c-5.23,3.57-6.58,10.71-3.01,15.94c1.01,1.48,2.29,2.63,3.74,3.47c0.32,0.18,0.66,0.36,0.98,0.51
			c0.85,0.38,1.74,0.66,2.63,0.83c0.91,0.17,1.83,0.23,2.75,0.18c0.37-0.02,0.74-0.06,1.11-0.11c1.65-0.25,3.27-0.86,4.74-1.87
			l20.27-13.83l-3.92,24.68c-1,6.26,3.27,12.14,9.53,13.14c3.02,0.47,5.94-0.26,8.27-1.85c2.52-1.72,4.35-4.43,4.87-7.68l7.33-46.06
			l18.27-12.46c8.97,9.06,20.64,15.43,33.68,17.82v22.09l-33.92,32.01c-2.39,2.26-3.61,5.29-3.61,8.35c0,2.83,1.04,5.65,3.13,7.88
			c4.35,4.6,11.62,4.82,16.23,0.47l18.16-17.14v24.53c0,6.33,5.14,11.47,11.48,11.47c1.79,0,3.46-0.41,4.98-1.14
			c0.33-0.16,0.66-0.34,0.97-0.52c0.79-0.48,1.52-1.06,2.17-1.7c0.65-0.65,1.22-1.37,1.7-2.17c0.19-0.31,0.37-0.63,0.53-0.97
			c0.72-1.5,1.14-3.19,1.14-4.97v-24.53l18.16,17.14c4.61,4.35,11.88,4.14,16.23-0.47c2.09-2.23,3.13-5.05,3.13-7.88
			c0-3.06-1.21-6.09-3.61-8.35l-33.92-32.01v-22.09c13.15-2.41,24.9-8.87,33.9-18.05l18.33,12.38l7.54,46.03
			c0.53,3.25,2.37,5.95,4.9,7.66c2.34,1.58,5.27,2.3,8.28,1.81c6.26-1.02,10.49-6.93,9.47-13.19l-4.04-24.65l20.33,13.73
			c1.53,1.04,3.22,1.65,4.94,1.87c0.31,0.04,0.61,0.07,0.92,0.08c1.29,0.07,2.58-0.09,3.81-0.46c0.11-0.03,0.22-0.07,0.32-0.1
			c0.44-0.15,0.86-0.32,1.29-0.52c0.21-0.09,0.41-0.2,0.61-0.31c0.1-0.06,0.21-0.12,0.3-0.17h0.01c0.28-0.17,0.55-0.33,0.81-0.52
			c0.51-0.36,0.98-0.75,1.43-1.19c0.09-0.09,0.18-0.18,0.27-0.27c0.08-0.09,0.17-0.18,0.24-0.27c0.09-0.09,0.18-0.2,0.27-0.3
			c0.25-0.3,0.48-0.61,0.71-0.93c0.22-0.33,0.42-0.67,0.61-1.01c0.06-0.11,0.12-0.22,0.18-0.34c0.05-0.12,0.11-0.23,0.16-0.35
			c0.05-0.12,0.11-0.23,0.16-0.35c0.22-0.52,0.39-1.06,0.52-1.61c0.09-0.37,0.17-0.73,0.22-1.1c0.05-0.37,0.09-0.74,0.11-1.11
			c0.02-0.37,0.02-0.74,0-1.11c-0.17-3.5-1.92-6.86-5.04-8.97l-20.32-13.73l24.38-5.47C487.75,548.66,491.63,542.52,490.25,536.33z
			 M354.47,560.18c-33.18,0-60.18-27-60.18-60.18c0-33.19,27-60.19,60.18-60.19s60.18,27,60.18,60.19
			C414.65,533.19,387.65,560.18,354.47,560.18z"/>
	</g>
</g>
</svg>
